<svg width="426" height="306" viewBox="0 0 426 306" version="1.1" xmlns="http://www.w3.org/2000/svg" xmlns:xlink="http://www.w3.org/1999/xlink">
<g id="Canvas" fill="none">
<g id="xsb_emptypic" clip-path="url(#clip0)">
<g id="Group 2">
<g id="Ellipse">
<ellipse cx="25.243" cy="25.2456" rx="25.243" ry="25.2456" transform="translate(113.706 86.1243)" fill="white"/>
</g>
<g id="Subtract">
<path fill-rule="evenodd" clip-rule="evenodd" d="M 15 0C 6.7157 0 0 6.71573 0 15L 0 163C 0 171.284 6.7157 178 15 178L 233 178C 241.284 178 248 171.284 248 163L 248 15C 248 6.71573 241.284 0 233 0L 15 0ZM 16.7554 8.75742C 12.337 8.75742 8.75537 12.3391 8.75537 16.7574L 8.75537 161.012C 8.75537 165.43 12.337 169.012 16.7554 169.012L 231.235 169.012C 235.654 169.012 239.235 165.43 239.235 161.012L 239.235 16.7574C 239.235 12.3391 235.654 8.75742 231.235 8.75742L 16.7554 8.75742Z" transform="translate(89 64)" fill="white"/>
</g>
<g id="Vector">
<path d="M 24.0136 74.8643C 17.5049 83.1823 9.54386 93.4293 4.6221 99.9628C 1.96367 103.492 3.58173 106.47 8 106.47L 206.529 106.47C 210.948 106.47 214.529 102.889 214.529 98.4704L 214.529 73.9036C 214.529 72.2401 214.011 70.618 213.046 69.2629L 169.913 8.69612C 166.817 4.34957 160.415 4.19431 157.113 8.38571L 128.567 44.6154C 125.629 48.3437 120.11 48.7091 116.706 45.4005L 107.738 36.6816C 104.424 33.4606 99.0787 33.7086 96.0778 37.2226L 57.3398 82.5837C 54.3914 86.0362 49.1641 86.3458 45.8287 83.2655L 35.7182 73.9283C 32.2892 70.7616 26.89 71.1884 24.0136 74.8643Z" transform="translate(103.731 116.467)" fill="white"/>
</g>
</g>
</g>
</g>
<defs>

<clipPath id="clip0">
<rect width="426" height="306" fill="white"/>
</clipPath>

</defs>
</svg>

