<svg width="12" height="12" viewBox="0 0 12 12" fill="none" xmlns="http://www.w3.org/2000/svg">
<path fill-rule="evenodd" clip-rule="evenodd" d="M4.25024 1C3.55989 1 3.00024 1.55964 3.00024 2.25C3.00024 2.94036 3.55989 3.5 4.25024 3.5C4.9406 3.5 5.50024 2.94036 5.50024 2.25C5.50024 1.55964 4.9406 1 4.25024 1ZM8.25 1C7.55964 1 7 1.55964 7 2.25C7 2.94036 7.55964 3.5 8.25 3.5C8.94036 3.5 9.5 2.94036 9.5 2.25C9.5 1.55964 8.94036 1 8.25 1ZM3 6.25C3 5.55964 3.55964 5 4.25 5C4.94036 5 5.5 5.55964 5.5 6.25C5.5 6.94036 4.94036 7.5 4.25 7.5C3.55964 7.5 3 6.94036 3 6.25ZM8.25 5C7.55964 5 7 5.55964 7 6.25C7 6.94036 7.55964 7.5 8.25 7.5C8.94036 7.5 9.5 6.94036 9.5 6.25C9.5 5.55964 8.94036 5 8.25 5ZM3 10.25C3 9.55964 3.55964 9 4.25 9C4.94036 9 5.5 9.55964 5.5 10.25C5.5 10.9404 4.94036 11.5 4.25 11.5C3.55964 11.5 3 10.9404 3 10.25ZM8.25 9C7.55964 9 7 9.55964 7 10.25C7 10.9404 7.55964 11.5 8.25 11.5C8.94036 11.5 9.5 10.9404 9.5 10.25C9.5 9.55964 8.94036 9 8.25 9Z" fill="white"/>
</svg>
